<svg width="35" height="50" viewBox="0 0 35 50" fill="none" xmlns="http://www.w3.org/2000/svg">
<g clip-path="url(#clip0_146_1412)">
<path d="M30.8718 50H4.02824C1.80743 50 0 48.1926 0 45.9718V4.02824C0 1.80743 1.80743 0 4.02824 0H30.8718C33.0926 0 34.9 1.80743 34.9 4.02824L34.9095 13.8561L33.5639 13.857L33.5544 4.02919C33.5544 2.5496 32.3514 1.3456 30.8718 1.3456H4.02824C2.54865 1.3456 1.3456 2.54865 1.3456 4.02824V45.9718C1.3456 47.4513 2.54865 48.6544 4.02824 48.6544H30.8718C32.3514 48.6544 33.5544 47.4513 33.5544 45.9718L33.5639 18.33H34.9095L34.9 45.9718C34.9 48.1926 33.0935 50 30.8718 50Z" fill="#1A3A6B"/>
<path d="M16.777 3.18921H18.1226V6.54465H16.777V3.18921ZM16.777 9.90009H18.1226V13.2555H16.777V9.90009ZM16.777 16.611H18.1226V19.9664H16.777V16.611ZM16.777 23.3228H18.1226V26.6783H16.777V23.3228ZM16.777 30.0337H18.1226V33.3891H16.777V30.0337ZM16.777 36.7446H18.1226V40.1H16.777V36.7446ZM16.777 43.4555H18.1226V46.8109H16.777V43.4555ZM25.8389 14.7674C23.1553 14.7674 20.9716 12.5837 20.9716 9.90009C20.9716 7.2165 23.1553 5.03275 25.8389 5.03275C28.5225 5.03275 30.7062 7.2165 30.7062 9.90009C30.7062 12.5837 28.5225 14.7674 25.8389 14.7674ZM25.8389 6.3793C23.8975 6.3793 22.3172 7.95867 22.3172 9.90105C22.3172 11.8425 23.8965 13.4228 25.8389 13.4228C27.7813 13.4228 29.3606 11.8434 29.3606 9.90105C29.3606 7.95867 27.7803 6.3793 25.8389 6.3793ZM9.06168 14.7674C6.37808 14.7674 4.19434 12.5837 4.19434 9.90009C4.19434 7.2165 6.37808 5.03275 9.06168 5.03275C11.7453 5.03275 13.929 7.2165 13.929 9.90009C13.929 12.5837 11.7453 14.7674 9.06168 14.7674ZM9.06168 6.3793C7.12025 6.3793 5.53993 7.95867 5.53993 9.90105C5.53993 11.8425 7.1193 13.4228 9.06168 13.4228C11.0031 13.4228 12.5834 11.8434 12.5834 9.90105C12.5825 7.95867 11.0031 6.3793 9.06168 6.3793ZM25.8389 29.8674C23.1553 29.8674 20.9716 27.6837 20.9716 25.0001C20.9716 22.3165 23.1553 20.1327 25.8389 20.1327C28.5225 20.1327 30.7062 22.3165 30.7062 25.0001C30.7062 27.6837 28.5225 29.8674 25.8389 29.8674ZM25.8389 21.4783C23.8975 21.4783 22.3172 23.0577 22.3172 25.0001C22.3172 26.9415 23.8965 28.5218 25.8389 28.5218C27.7813 28.5218 29.3606 26.9424 29.3606 25.0001C29.3606 23.0586 27.7803 21.4783 25.8389 21.4783ZM9.06168 29.8674C6.37808 29.8674 4.19434 27.6837 4.19434 25.0001C4.19434 22.3165 6.37808 20.1327 9.06168 20.1327C11.7453 20.1327 13.929 22.3165 13.929 25.0001C13.929 27.6837 11.7453 29.8674 9.06168 29.8674ZM9.06168 21.4783C7.12025 21.4783 5.53993 23.0577 5.53993 25.0001C5.53993 26.9415 7.1193 28.5218 9.06168 28.5218C11.0031 28.5218 12.5834 26.9424 12.5834 25.0001C12.5825 23.0586 11.0031 21.4783 9.06168 21.4783ZM25.8389 44.9664C23.1553 44.9664 20.9716 42.7827 20.9716 40.0991C20.9716 37.4155 23.1553 35.2317 25.8389 35.2317C28.5225 35.2317 30.7062 37.4155 30.7062 40.0991C30.7062 42.7827 28.5225 44.9664 25.8389 44.9664ZM25.8389 36.5783C23.8975 36.5783 22.3172 38.1577 22.3172 40.1C22.3172 42.0424 23.8965 43.6218 25.8389 43.6218C27.7813 43.6218 29.3606 42.0424 29.3606 40.1C29.3606 38.1577 27.7803 36.5783 25.8389 36.5783ZM9.06168 44.9664C6.37808 44.9664 4.19434 42.7827 4.19434 40.0991C4.19434 37.4155 6.37808 35.2317 9.06168 35.2317C11.7453 35.2317 13.929 37.4155 13.929 40.0991C13.929 42.7827 11.7453 44.9664 9.06168 44.9664ZM9.06168 36.5783C7.12025 36.5783 5.53993 38.1577 5.53993 40.1C5.53993 42.0424 7.1193 43.6218 9.06168 43.6218C11.0031 43.6218 12.5834 42.0424 12.5834 40.1C12.5834 38.1577 11.0031 36.5783 9.06168 36.5783Z" fill="#1A3A6B"/>
<path d="M4.86719 9.22729H13.2563V10.5729H4.86719V9.22729ZM21.6444 9.22729H30.0335V10.5729H21.6444V9.22729ZM4.86719 24.3273H13.2563V25.6729H4.86719V24.3273ZM21.6444 24.3273H30.0335V25.6729H21.6444V24.3273ZM21.6444 39.4272H30.0335V40.7728H21.6444V39.4272ZM4.86719 39.4272H13.2563V40.7728H4.86719V39.4272ZM33.5638 14.9746H34.9094V16.0931H33.5638V14.9746Z" fill="#1A3A6B"/>
</g>
<defs>
<clipPath id="clip0_146_1412">
<rect width="34.9095" height="50" fill="white"/>
</clipPath>
</defs>
</svg>
