<svg width="46" height="41" viewBox="0 0 46 41" fill="none" xmlns="http://www.w3.org/2000/svg">
<g clip-path="url(#clip0_146_1400)">
<path d="M33.731 40.95H11.65C11.0236 40.9481 10.404 40.8207 9.82776 40.5753C9.2515 40.3298 8.73031 39.9713 8.295 39.521C5.8 36.934 2.79558e-06 29.94 2.79558e-06 20.916C-0.000664309 20.4417 0.118071 19.9749 0.345263 19.5586C0.572455 19.1424 0.900792 18.79 1.3 18.534L3.545 17.08V13.454C3.54659 12.9254 3.75731 12.419 4.13113 12.0454C4.50496 11.6718 5.01147 11.4613 5.54 11.46H8.74C10.88 9.03196 20.156 3.51396 23.44 3.51396C23.6164 3.51396 23.7855 3.58402 23.9102 3.70873C24.0349 3.83345 24.105 4.00259 24.105 4.17896C24.105 4.35533 24.0349 4.52448 23.9102 4.64919C23.7855 4.7739 23.6164 4.84396 23.44 4.84396C21.004 4.84396 12.261 9.95896 10.6 11.461H36.172C35.509 9.23096 33.418 2.51896 31.182 1.46896C29.8969 2.9568 28.1903 4.01933 26.288 4.51596C26.1193 4.5529 25.9428 4.52272 25.7959 4.43182C25.649 4.34092 25.5432 4.19642 25.501 4.02892C25.4588 3.86142 25.4834 3.68406 25.5696 3.53438C25.6558 3.3847 25.7969 3.27445 25.963 3.22696C27.7587 2.75222 29.3495 1.70236 30.492 0.23796C30.5817 0.131598 30.7025 0.0560549 30.8374 0.0219699C30.9723 -0.0121151 31.1145 -0.00302486 31.244 0.0479604C34.169 1.19996 36.85 8.56796 37.544 11.461H39.837C40.3654 11.4625 40.8716 11.6731 41.2452 12.0467C41.6188 12.4203 41.8294 12.9266 41.831 13.455V17.08L44.08 18.534C44.4782 18.7884 44.8059 19.139 45.0331 19.5533C45.2603 19.9676 45.3796 20.4324 45.38 20.905C45.3657 23.7107 44.8369 26.49 43.82 29.105C43.7527 29.2632 43.6267 29.3892 43.4685 29.4565C43.3103 29.5238 43.1321 29.5273 42.9714 29.4661C42.8107 29.4049 42.68 29.2838 42.6066 29.1283C42.5333 28.9728 42.523 28.7949 42.578 28.632C43.4519 26.38 43.9459 23.9987 44.04 21.585H24.94C24.7636 21.585 24.5945 21.5149 24.4698 21.3902C24.3451 21.2655 24.275 21.0963 24.275 20.92C24.275 20.7436 24.3451 20.5744 24.4698 20.4497C24.5945 20.325 24.7636 20.255 24.94 20.255H43.9C43.779 20.0101 43.5937 19.8027 43.364 19.655L40.976 18.112H4.406L2.018 19.651C1.7884 19.7986 1.60342 20.006 1.483 20.251H22.278C22.4544 20.251 22.6235 20.321 22.7482 20.4457C22.8729 20.5704 22.943 20.7396 22.943 20.916C22.943 21.0923 22.8729 21.2615 22.7482 21.3862C22.6235 21.5109 22.4544 21.581 22.278 21.581H1.341C1.617 29.802 6.932 36.192 9.252 38.599C9.56333 38.9212 9.93616 39.1777 10.3484 39.3532C10.7607 39.5288 11.2039 39.6198 11.652 39.621H33.731C34.1778 39.6199 34.6199 39.5292 35.0311 39.3544C35.4423 39.1795 35.8142 38.924 36.125 38.603C38.3231 36.3151 40.1665 33.7113 41.594 30.878C41.6725 30.7199 41.8106 30.5995 41.9779 30.5432C42.1452 30.487 42.3279 30.4995 42.486 30.578C42.6441 30.6565 42.7645 30.7945 42.8207 30.9618C42.877 31.1291 42.8645 31.3119 42.786 31.47C41.3054 34.4296 39.3834 37.147 37.086 39.529C36.651 39.9784 36.1304 40.3361 35.5548 40.5808C34.9792 40.8256 34.3605 40.9525 33.735 40.954L33.731 40.95ZM4.875 16.778H40.506V13.454C40.5057 13.2777 40.4356 13.1087 40.3109 12.984C40.1863 12.8594 40.0173 12.7892 39.841 12.789H5.54C5.36372 12.7892 5.19472 12.8594 5.07007 12.984C4.94541 13.1087 4.87527 13.2777 4.875 13.454V14.119H38.511C38.6874 14.119 38.8565 14.189 38.9812 14.3137C39.1059 14.4384 39.176 14.6076 39.176 14.784C39.176 14.9603 39.1059 15.1295 38.9812 15.2542C38.8565 15.3789 38.6874 15.449 38.511 15.449H4.875V16.778ZM22.69 36.962C21.4706 36.9601 20.3016 36.4749 19.4394 35.6126C18.5771 34.7503 18.0919 33.5814 18.09 32.362C18.09 30.321 19.229 27.9 21.676 24.74C21.7962 24.5849 21.9503 24.4593 22.1265 24.373C22.3027 24.2866 22.4963 24.2417 22.6925 24.2417C22.8887 24.2417 23.0823 24.2866 23.2585 24.373C23.4347 24.4593 23.5888 24.5849 23.709 24.74C26.155 27.899 27.295 30.321 27.295 32.362C27.2931 33.5814 26.8079 34.7503 25.9456 35.6126C25.0834 36.4749 23.9144 36.9601 22.695 36.962H22.69ZM22.69 25.597C20.49 28.449 19.417 30.662 19.417 32.36C19.417 33.228 19.7618 34.0605 20.3756 34.6743C20.9894 35.2881 21.8219 35.633 22.69 35.633C23.5581 35.633 24.3906 35.2881 25.0044 34.6743C25.6182 34.0605 25.963 33.228 25.963 32.36C25.963 30.66 24.892 28.449 22.69 25.597Z" fill="#1A3A6B"/>
</g>
<defs>
<clipPath id="clip0_146_1400">
<rect width="45.38" height="40.95" fill="white"/>
</clipPath>
</defs>
</svg>
