<svg width="40" height="45" viewBox="0 0 40 45" fill="none" xmlns="http://www.w3.org/2000/svg">
<g clip-path="url(#clip0_146_1419)">
<path d="M15.9362 45H6.12525C5.44221 44.999 4.77627 44.7864 4.21899 44.3914C3.66171 43.9965 3.24046 43.4386 3.01316 42.7945L2.9714 42.6747C0.930987 37.2041 -0.0751015 31.402 0.00436549 25.5637C0.140176 18.4142 1.45567 11.3362 3.89777 4.61538L4.02085 4.25055C4.18199 3.77044 4.48983 3.35305 4.90093 3.05729C5.31203 2.76154 5.80563 2.60235 6.31206 2.6022H8.39228C8.56715 2.6022 8.73485 2.67166 8.8585 2.79531C8.98215 2.91896 9.05162 3.08667 9.05162 3.26154C9.05162 3.43641 8.98215 3.60411 8.8585 3.72776C8.73485 3.85141 8.56715 3.92088 8.39228 3.92088H6.31316C6.08315 3.92075 5.85891 3.99278 5.67201 4.12684C5.48512 4.2609 5.345 4.45022 5.2714 4.66813L5.14722 5.03407L5.07689 5.24066H8.19338C8.29268 5.24151 8.39051 5.26478 8.47957 5.30874C8.56862 5.35269 8.64659 5.41619 8.70766 5.49451C8.99425 5.83085 9.35044 6.10096 9.75162 6.28619C10.1528 6.47142 10.5894 6.56735 11.0313 6.56735C11.4732 6.56735 11.9098 6.47142 12.311 6.28619C12.7121 6.10096 13.0683 5.83085 13.3549 5.49451C13.4168 5.41761 13.4951 5.35557 13.5841 5.31296C13.6731 5.27036 13.7705 5.24828 13.8692 5.24835H16.9857L16.9154 5.04176L16.7912 4.67582C16.7176 4.45792 16.5775 4.26859 16.3906 4.13453C16.2037 4.00048 15.9794 3.92844 15.7494 3.92857H11.0318C10.857 3.92857 10.6893 3.85911 10.5656 3.73546C10.442 3.6118 10.3725 3.4441 10.3725 3.26923C10.3725 3.09436 10.442 2.92666 10.5656 2.80301C10.6893 2.67936 10.857 2.60989 11.0318 2.60989H15.7505C16.257 2.61004 16.7506 2.76923 17.1616 3.06499C17.5728 3.36074 17.8806 3.77813 18.0417 4.25824L18.1659 4.62308C18.4121 5.34725 18.7154 6.23407 19.045 7.27253C19.567 5.20989 20.1351 3.6 20.5835 2.32747L20.6263 2.20769C20.8528 1.56459 21.2725 1.00723 21.8281 0.612002C22.3837 0.216774 23.0478 0.00300864 23.7296 0L33.5395 0C34.2226 0.00103534 34.8885 0.213638 35.4458 0.608576C36.0031 1.00351 36.4243 1.56139 36.6516 2.20549L36.6945 2.32637C38.7347 7.79667 39.7408 13.5984 39.6615 19.4363C39.5242 26.5856 38.2072 33.6633 35.7637 40.3835L35.6406 40.7484C35.4795 41.2285 35.1717 41.6459 34.7606 41.9416C34.3495 42.2374 33.8559 42.3966 33.3494 42.3967H31.2736C31.0987 42.3967 30.931 42.3272 30.8074 42.2036C30.6837 42.0799 30.6143 41.9122 30.6143 41.7374C30.6143 41.5625 30.6837 41.3948 30.8074 41.2711C30.931 41.1475 31.0987 41.078 31.2736 41.078H33.3538C33.5838 41.0782 33.8081 41.0061 33.995 40.8721C34.1819 40.738 34.322 40.5487 34.3956 40.3308L34.5198 39.9648L34.5901 39.7582H31.4725C31.3738 39.7583 31.2764 39.7362 31.1874 39.6936C31.0984 39.651 31.0201 39.589 30.9582 39.5121C30.6717 39.1756 30.3156 38.9053 29.9144 38.72C29.5132 38.5346 29.0765 38.4387 28.6346 38.4387C28.1927 38.4387 27.756 38.5346 27.3548 38.72C26.9536 38.9053 26.5974 39.1756 26.311 39.5121C26.2491 39.589 26.1708 39.651 26.0818 39.6936C25.9928 39.7362 25.8954 39.7583 25.7967 39.7582H22.6802L22.7494 39.9626L22.8747 40.3308C22.9483 40.5487 23.0884 40.738 23.2753 40.8721C23.4622 41.0061 23.6865 41.0782 23.9165 41.078H28.6351C28.81 41.078 28.9777 41.1475 29.1014 41.2711C29.225 41.3948 29.2945 41.5625 29.2945 41.7374C29.2945 41.9122 29.225 42.0799 29.1014 42.2036C28.9777 42.3272 28.81 42.3967 28.6351 42.3967H23.9165C23.4091 42.3977 22.9143 42.2391 22.5021 41.9432C22.0899 41.6474 21.7812 41.2294 21.6198 40.7484L21.4956 40.3813C21.1952 39.5056 20.9051 38.6264 20.6252 37.744C20.1044 39.7901 19.534 41.4077 19.0868 42.6791L19.0439 42.8C18.8165 43.444 18.3952 44.0018 17.838 44.3967C17.2807 44.7916 16.6148 45.0043 15.9318 45.0055L15.9362 45ZM3.44722 10.5242C2.08345 15.4224 1.36818 20.4783 1.31975 25.5626C1.24422 31.2516 2.22646 36.9051 4.21645 42.2352L4.25821 42.3549C4.39448 42.7418 4.64726 43.077 4.9818 43.3143C5.31633 43.5516 5.71618 43.6794 6.12634 43.6802H15.9362C16.3464 43.6794 16.7462 43.5516 17.0808 43.3143C17.4153 43.077 17.6681 42.7418 17.8044 42.3549L17.8472 42.2341C19.8357 36.904 20.8169 31.251 20.7406 25.5626C20.7241 21.9763 20.356 18.4002 19.6417 14.8857C19.6248 14.8008 19.6249 14.7134 19.6418 14.6284C19.6587 14.5435 19.6921 14.4628 19.7402 14.3908C19.7883 14.3188 19.8502 14.257 19.9222 14.2089C19.9942 14.1608 20.0749 14.1273 20.1599 14.1104C20.2448 14.0936 20.3322 14.0936 20.4171 14.1105C20.5021 14.1274 20.5828 14.1608 20.6548 14.2089C20.7268 14.2571 20.7886 14.3189 20.8367 14.3909C20.8848 14.4629 20.9183 14.5436 20.9351 14.6286C21.6659 18.2278 22.042 21.89 22.0582 25.5626C22.0723 28.5494 21.8267 31.5317 21.3241 34.4758H36.2143C37.5781 29.5773 38.2934 24.5209 38.3417 19.4363C38.4187 13.748 37.4383 8.095 35.4505 2.76484L35.4077 2.64396C35.2714 2.25709 35.0186 1.92194 34.6841 1.68462C34.3495 1.4473 33.9497 1.31946 33.5395 1.31868H23.7296C23.3195 1.31946 22.9196 1.4473 22.5851 1.68462C22.2506 1.92194 21.9978 2.25709 21.8615 2.64396L21.8187 2.76484C20.9648 5.07646 20.292 7.45103 19.8066 9.86703C19.9846 10.5125 20.1619 11.1949 20.3384 11.9143C20.3798 12.0842 20.352 12.2636 20.2611 12.413C20.1702 12.5624 20.0237 12.6696 19.8538 12.711C19.6839 12.7524 19.5045 12.7246 19.3551 12.6337C19.2057 12.5428 19.0985 12.3963 19.0571 12.2264C18.9157 11.6447 18.7725 11.0868 18.6274 10.5527L3.44722 10.5242ZM31.7582 38.4363H35.0263C35.2769 37.667 35.5571 36.7879 35.845 35.7989H21.4187C21.7066 36.7879 21.9857 37.667 22.2384 38.4363H25.511C25.9169 38.0188 26.4025 37.6869 26.9389 37.4603C27.4753 37.2337 28.0517 37.1169 28.634 37.1169C29.2164 37.1169 29.7928 37.2337 30.3292 37.4603C30.8656 37.6869 31.3523 38.0188 31.7582 38.4363ZM3.81755 9.20549L18.256 9.23077C17.995 8.33711 17.7188 7.44797 17.4274 6.56374H14.1538C13.7479 6.98124 13.2623 7.3131 12.7259 7.53972C12.1895 7.76633 11.6131 7.88309 11.0307 7.88309C10.4484 7.88309 9.872 7.76633 9.33558 7.53972C8.79915 7.3131 8.31361 6.98124 7.90766 6.56374H4.63623C4.34862 7.43969 4.07569 8.3204 3.81755 9.20549ZM11.0318 31.2934C10.9546 31.2936 10.878 31.2802 10.8055 31.2538L7.94832 30.2099C6.73418 29.7652 5.68567 28.9587 4.94426 27.8994C4.20285 26.84 3.80422 25.5787 3.80217 24.2857V21.2418C3.80208 21.1356 3.82762 21.0311 3.87659 20.9369C3.92557 20.8428 3.99655 20.7619 4.08349 20.701C4.17044 20.6402 4.27078 20.6012 4.376 20.5875C4.48123 20.5737 4.58821 20.5855 4.68788 20.622L7.54503 21.6659C9.06264 22.2219 10.3091 23.339 11.0274 24.7868C11.7458 23.339 12.9923 22.2219 14.5099 21.6659L17.367 20.622C17.4667 20.5855 17.5737 20.5737 17.6789 20.5875C17.7841 20.6012 17.8845 20.6402 17.9714 20.701C18.0583 20.7619 18.1293 20.8428 18.1783 20.9369C18.2273 21.0311 18.2528 21.1356 18.2527 21.2418V24.2857C18.2499 25.5773 17.8514 26.837 17.1109 27.8952C16.3704 28.9534 15.3234 29.7593 14.111 30.2044L11.2538 31.2484C11.1813 31.2747 11.1046 31.2881 11.0274 31.2879L11.0318 31.2934ZM5.12195 22.1879V24.2857C5.12414 25.3069 5.43921 26.3028 6.02471 27.1394C6.61022 27.976 7.43804 28.6131 8.39667 28.9648L10.3747 29.6857V27.5824C10.3725 26.5613 10.0574 25.5653 9.47193 24.7287C8.88643 23.8921 8.05861 23.2551 7.09997 22.9033L5.12195 22.1879ZM11.6912 27.5824V29.6857L13.6692 28.9648C14.6278 28.6131 15.4557 27.976 16.0412 27.1394C16.6267 26.3028 16.9417 25.3069 16.9439 24.2857V22.1846L14.9659 22.9055C14.0076 23.2571 13.18 23.8939 12.5946 24.73C12.0091 25.5662 11.6938 26.5617 11.6912 27.5824ZM28.6351 24.3604C27.4242 24.3593 26.2633 23.8777 25.407 23.0215C24.5508 22.1653 24.0693 21.0043 24.0681 19.7934C24.0681 17.7681 25.1989 15.3659 27.6263 12.2308C27.7456 12.0768 27.8985 11.9521 28.0733 11.8664C28.2482 11.7806 28.4404 11.736 28.6351 11.736C28.8299 11.736 29.0221 11.7806 29.1969 11.8664C29.3718 11.9521 29.5247 12.0768 29.6439 12.2308C32.0714 15.3659 33.2022 17.7681 33.2022 19.7934C33.2013 21.0047 32.7197 22.1661 31.8632 23.0226C31.0067 23.8791 29.8453 24.3607 28.634 24.3615L28.6351 24.3604ZM28.6351 13.0835C26.4494 15.9143 25.3879 18.1099 25.3879 19.7945C25.3879 20.6557 25.73 21.4817 26.339 22.0907C26.948 22.6996 27.7739 23.0418 28.6351 23.0418C29.4964 23.0418 30.3223 22.6996 30.9313 22.0907C31.5403 21.4817 31.8824 20.6557 31.8824 19.7945C31.8824 18.111 30.8198 15.9154 28.634 13.0846L28.6351 13.0835Z" fill="#1A3A6B"/>
</g>
<defs>
<clipPath id="clip0_146_1419">
<rect width="39.6659" height="45" fill="white"/>
</clipPath>
</defs>
</svg>
