<svg width="40" height="41" viewBox="0 0 40 41" fill="none" xmlns="http://www.w3.org/2000/svg">
<g clip-path="url(#clip0_146_1394)">
<path d="M37.2684 18.65C35.9923 17.3208 34.2419 16.5509 32.3998 16.5088C30.5577 16.4666 28.7739 17.1556 27.4384 18.425L27.3564 18.503L27.6424 15.411L28.3684 7.59897C28.5378 5.76327 27.9721 3.93532 26.7953 2.51629C25.6185 1.09726 23.9267 0.203078 22.0914 0.0299748C20.2558 -0.138046 18.4284 0.428864 17.0102 1.60635C15.592 2.78384 14.6988 4.47575 14.5264 6.31097L13.8004 14.128L13.6334 15.899L10.3334 10.364C9.83574 9.53878 9.13357 8.85597 8.2948 8.38158C7.45602 7.90718 6.50902 7.65726 5.54538 7.65597C4.56426 7.65715 3.60096 7.91825 2.75354 8.41269C1.90611 8.90714 1.20482 9.61728 0.721037 10.4708C0.237253 11.3244 -0.0117467 12.2909 -0.000619317 13.272C0.0105081 14.253 0.281366 15.2136 0.784385 16.056L6.83638 26.207C7.33403 27.0322 8.0362 27.715 8.87498 28.1894C9.71375 28.6638 10.6607 28.9137 11.6244 28.915C13.0498 28.9156 14.4203 28.3652 15.4494 27.379C15.9136 27.7897 16.4309 28.1361 16.9874 28.409L16.3924 28.977C15.0611 30.2516 14.2897 32.0023 14.2476 33.845C14.2054 35.6876 14.8958 37.4717 16.1674 38.806C17.4434 40.1352 19.1939 40.905 21.0359 40.9472C22.878 40.9894 24.6619 40.3004 25.9974 39.031L37.0434 28.48C38.3723 27.2038 39.142 25.4534 39.1842 23.6114C39.2264 21.7694 38.5376 19.9856 37.2684 18.65ZM3.53039 9.80998C4.13972 9.44668 4.83596 9.25491 5.54538 9.25498C6.23231 9.25511 6.90755 9.43266 7.50568 9.77045C8.10381 10.1082 8.60456 10.5948 8.95938 11.183L11.5184 15.474C10.2438 15.8665 9.02228 16.4143 7.88138 17.105C6.73139 17.7807 5.66876 18.5951 4.71738 19.53L2.15839 15.239C1.62158 14.3368 1.46457 13.2586 1.72178 12.2408C1.97899 11.223 2.62943 10.3488 3.53039 9.80998ZM13.6384 26.76C13.029 27.1232 12.3328 27.315 11.6234 27.315C10.9366 27.3147 10.2616 27.137 9.66365 26.7993C9.06571 26.4615 8.56513 25.975 8.21039 25.387L5.56638 20.955C6.49124 19.9884 7.546 19.1551 8.70039 18.479C9.8439 17.7848 11.0784 17.2531 12.3684 16.899L15.0114 21.332C15.4103 22.0015 15.603 22.7738 15.5655 23.5523C15.528 24.3307 15.2618 25.0809 14.8004 25.709L14.7684 25.751C14.4606 26.1573 14.0768 26.4999 13.6384 26.76ZM16.4384 26.116C16.9261 25.2615 17.1784 24.293 17.1696 23.3092C17.1608 22.3254 16.8913 21.3616 16.3884 20.516L15.0274 18.234L15.3404 14.855C16.1049 14.698 16.8801 14.5978 17.6594 14.555C17.8716 14.5428 18.0702 14.4468 18.2116 14.2881C18.353 14.1295 18.4256 13.9211 18.4134 13.709C18.4012 13.4968 18.3052 13.2982 18.1465 13.1568C17.9879 13.0154 17.7796 12.9428 17.5674 12.955C16.8721 12.9933 16.1796 13.0717 15.4934 13.19L16.1184 6.45597C16.2515 5.04357 16.9392 3.74157 18.0307 2.83541C19.1223 1.92925 20.5286 1.49289 21.9414 1.62197C23.3542 1.75457 24.6567 2.44207 25.5632 3.53368C26.4698 4.62528 26.9065 6.03188 26.7774 7.44497L26.1524 14.179C25.4998 13.9366 24.8337 13.7323 24.1574 13.567C24.0547 13.5397 23.9477 13.5332 23.8425 13.5478C23.7373 13.5623 23.6361 13.5977 23.5447 13.6518C23.4533 13.7059 23.3736 13.7777 23.3102 13.8629C23.2469 13.9481 23.2011 14.0451 23.1756 14.1482C23.1501 14.2513 23.1454 14.3584 23.1618 14.4634C23.1781 14.5683 23.2152 14.6689 23.2708 14.7594C23.3265 14.8498 23.3996 14.9283 23.4858 14.9902C23.5721 15.0521 23.6699 15.0962 23.7734 15.12C24.5325 15.3047 25.2768 15.5453 26.0004 15.84L25.6004 20.188L18.2524 27.208C17.5797 26.9694 16.9617 26.5981 16.4354 26.116H16.4384ZM24.8964 37.876C24.3903 38.373 23.7906 38.7646 23.1319 39.0279C22.4733 39.2912 21.7689 39.4211 21.0597 39.4099C20.3504 39.3987 19.6505 39.2468 19.0004 38.9628C18.3504 38.6789 17.7633 38.2686 17.2731 37.7559C16.783 37.2432 16.3996 36.6382 16.1452 35.976C15.8908 35.3139 15.7705 34.6078 15.7913 33.8988C15.8121 33.1897 15.9735 32.4919 16.2662 31.8458C16.5589 31.1997 16.9771 30.6181 17.4964 30.135L22.4474 25.406C24.0121 26.3167 25.4363 27.4499 26.6754 28.77C27.9374 30.068 29.0042 31.5424 29.8424 33.147L24.8964 37.876ZM35.9384 27.324L31.0474 31.999C30.1684 30.4217 29.088 28.9655 27.8334 27.667C26.5933 26.3543 25.1879 25.2084 23.6524 24.258L28.5434 19.586C29.574 18.6271 30.9407 18.1126 32.3478 18.1539C33.7549 18.1951 35.0891 18.7887 36.0618 19.8062C37.0346 20.8238 37.5675 22.1834 37.5453 23.5909C37.5232 24.9984 36.9477 26.3406 35.9434 27.327L35.9384 27.324Z" fill="#1A3A6B"/>
<path d="M20.8088 13.019C20.6506 13.019 20.4959 13.066 20.3643 13.1539C20.2328 13.2418 20.1302 13.3667 20.0697 13.5129C20.0091 13.6591 19.9933 13.8199 20.0242 13.9751C20.055 14.1303 20.1312 14.2728 20.2431 14.3847C20.355 14.4966 20.4975 14.5728 20.6527 14.6037C20.8079 14.6345 20.9688 14.6187 21.1149 14.5581C21.2611 14.4976 21.3861 14.3951 21.474 14.2635C21.5619 14.1319 21.6088 13.9773 21.6088 13.819C21.6088 13.714 21.5881 13.61 21.5479 13.5129C21.5077 13.4158 21.4488 13.3276 21.3745 13.2534C21.3002 13.1791 21.212 13.1201 21.1149 13.0799C21.0179 13.0397 20.9138 13.019 20.8088 13.019Z" fill="#1A3A6B"/>
</g>
<defs>
<clipPath id="clip0_146_1394">
<rect width="39.185" height="40.95" fill="white"/>
</clipPath>
</defs>
</svg>
