<svg width="41" height="41" viewBox="0 0 41 41" fill="none" xmlns="http://www.w3.org/2000/svg">
<g clip-path="url(#clip0_146_1405)">
<path d="M14.8768 18.7431C14.8767 18.5647 14.817 18.3914 14.7072 18.2508C14.5973 18.1102 14.4436 18.0104 14.2705 17.9672C14.0974 17.924 13.9149 17.9399 13.7518 18.0123C13.5888 18.0848 13.4547 18.2097 13.3708 18.3671L8.93176 26.6911C8.86685 26.813 8.83461 26.9496 8.83815 27.0877C8.8417 27.2257 8.88092 27.3605 8.952 27.4789C9.02308 27.5973 9.12359 27.6953 9.24376 27.7633C9.36393 27.8313 9.49967 27.8671 9.63776 27.8671H13.2778V30.8591C13.2778 31.0344 13.3354 31.2048 13.4417 31.3441C13.548 31.4835 13.6972 31.584 13.8662 31.6304C14.0352 31.6767 14.2148 31.6663 14.3773 31.6007C14.5399 31.535 14.6763 31.4178 14.7658 31.2671L19.2048 23.7751C19.2768 23.6536 19.3154 23.5153 19.3166 23.3741C19.3178 23.2329 19.2817 23.0939 19.2118 22.9712C19.1419 22.8485 19.0408 22.7465 18.9187 22.6755C18.7966 22.6045 18.658 22.5671 18.5168 22.5671H14.8768V18.7431ZM17.1128 24.1671L14.8768 27.9401V27.0671C14.8768 26.8549 14.7925 26.6515 14.6424 26.5014C14.4924 26.3514 14.2889 26.2671 14.0768 26.2671H10.9708L13.2778 21.9421V23.3671C13.2778 23.4722 13.2985 23.5762 13.3387 23.6733C13.3789 23.7703 13.4378 23.8585 13.5121 23.9328C13.5864 24.0071 13.6746 24.066 13.7716 24.1062C13.8687 24.1464 13.9727 24.1671 14.0778 24.1671H17.1128Z" fill="#1A3A6B"/>
<path d="M38.391 22.344V20C38.391 19.3635 38.1381 18.753 37.6881 18.3029C37.238 17.8529 36.6275 17.6 35.991 17.6H28.953C28.6804 17.6 28.4098 17.6467 28.153 17.738V14.568C28.1506 12.6537 27.5016 10.7964 26.3112 9.29729C25.1208 7.79816 23.4589 6.74513 21.595 6.309V2.4C21.595 1.76435 21.3428 1.15465 20.8938 0.704709C20.4448 0.254765 19.8357 0.00132428 19.2 0L8.958 0C8.32148 0 7.71103 0.252856 7.26094 0.702944C6.81086 1.15303 6.558 1.76348 6.558 2.4V6.31C4.69425 6.74609 3.03246 7.79897 1.8421 9.2979C0.651743 10.7968 0.0026221 12.6539 0 14.568L0 35.032C0.00158839 36.6011 0.6256 38.1054 1.7351 39.2149C2.84459 40.3244 4.34894 40.9484 5.918 40.95H22.235C23.3664 40.9493 24.474 40.6248 25.427 40.015C26.1453 40.6195 27.0542 40.9506 27.993 40.95H36.951C38.0119 40.95 39.0293 40.5286 39.7794 39.7784C40.5296 39.0283 40.951 38.0109 40.951 36.95V26.074C40.9506 25.2665 40.7059 24.4781 40.249 23.8123C39.792 23.1466 39.1443 22.6347 38.391 22.344ZM28.953 19.2H35.991C36.2032 19.2 36.4067 19.2843 36.5567 19.4343C36.7067 19.5843 36.791 19.7878 36.791 20V22.079H28.153V20C28.153 19.7878 28.2373 19.5843 28.3873 19.4343C28.5373 19.2843 28.7408 19.2 28.953 19.2ZM20 2.4V6.09H18.4V1.6H19.2C19.3051 1.6 19.4091 1.62069 19.5061 1.6609C19.6032 1.7011 19.6914 1.76003 19.7657 1.83431C19.84 1.9086 19.8989 1.99679 19.9391 2.09385C19.9793 2.19091 20 2.29494 20 2.4ZM11.357 6.09V1.6H13.277V6.09H11.357ZM14.876 1.6H16.8V6.09H14.88L14.876 1.6ZM8.158 6.09V2.4C8.158 2.18783 8.24229 1.98434 8.39231 1.83431C8.54234 1.68429 8.74583 1.6 8.958 1.6H9.758V6.09H8.158ZM8.478 7.69H19.678C21.363 7.69231 22.9887 8.31227 24.2474 9.43254C25.506 10.5528 26.3103 12.0956 26.508 13.769H17.678C17.5729 13.769 17.4689 13.7897 17.3719 13.8299C17.2748 13.8701 17.1866 13.929 17.1123 14.0033C17.038 14.0776 16.9791 14.1658 16.9389 14.2629C16.8987 14.3599 16.878 14.4639 16.878 14.569C16.878 14.6741 16.8987 14.7781 16.9389 14.8751C16.9791 14.9722 17.038 15.0604 17.1123 15.1347C17.1866 15.209 17.2748 15.2679 17.3719 15.3081C17.4689 15.3483 17.5729 15.369 17.678 15.369H26.556V22.345C25.8029 22.6358 25.1554 23.1478 24.6986 23.8135C24.2419 24.4793 23.9973 25.2676 23.997 26.075V34.234H1.6V15.368H10.478C10.6902 15.368 10.8937 15.2837 11.0437 15.1337C11.1937 14.9837 11.278 14.7802 11.278 14.568C11.278 14.3558 11.1937 14.1523 11.0437 14.0023C10.8937 13.8523 10.6902 13.768 10.478 13.768H1.648C1.84569 12.0946 2.64998 10.5518 3.90865 9.43154C5.16731 8.31127 6.793 7.69231 8.478 7.69ZM5.918 39.35C4.912 39.3486 3.93795 38.9965 3.16351 38.3544C2.38908 37.7123 1.86271 36.8203 1.675 35.832H23.994V36.951C23.9939 37.5766 24.1416 38.1933 24.425 38.751C23.7614 39.1424 23.0054 39.3496 22.235 39.351L5.918 39.35ZM39.351 36.95C39.351 37.2652 39.2889 37.5773 39.1683 37.8684C39.0477 38.1596 38.8709 38.4242 38.6481 38.6471C38.4252 38.8699 38.1606 39.0467 37.8694 39.1673C37.5783 39.2879 37.2662 39.35 36.951 39.35H27.993C27.3565 39.35 26.746 39.0971 26.2959 38.6471C25.8459 38.197 25.593 37.5865 25.593 36.95V26.074C25.593 25.4375 25.8459 24.827 26.2959 24.3769C26.746 23.9269 27.3565 23.674 27.993 23.674H36.951C37.2662 23.674 37.5783 23.7361 37.8694 23.8567C38.1606 23.9773 38.4252 24.1541 38.6481 24.3769C38.8709 24.5998 39.0477 24.8644 39.1683 25.1556C39.2889 25.4467 39.351 25.7588 39.351 26.074V36.95Z" fill="#1A3A6B"/>
<path d="M34.132 30.1781H33.274V29.2481C33.2739 29.0697 33.2142 28.8964 33.1044 28.7558C32.9945 28.6152 32.8409 28.5154 32.6678 28.4721C32.4947 28.4289 32.3121 28.4448 32.149 28.5173C31.986 28.5897 31.8519 28.7146 31.768 28.8721L30.107 31.9861C30.0421 32.108 30.0098 32.2446 30.0134 32.3826C30.0169 32.5207 30.0561 32.6554 30.1272 32.7738C30.1983 32.8922 30.2988 32.9902 30.419 33.0582C30.5391 33.1263 30.6749 33.162 30.813 33.1621H31.674V33.7781C31.674 33.9533 31.7316 34.1237 31.8379 34.2631C31.9443 34.4024 32.0934 34.503 32.2624 34.5494C32.4315 34.5957 32.611 34.5853 32.7736 34.5196C32.9361 34.454 33.0725 34.3368 33.162 34.1861L34.823 31.3861C34.895 31.2646 34.9336 31.1263 34.9348 30.9851C34.936 30.8439 34.8999 30.7048 34.83 30.5821C34.7601 30.4594 34.659 30.3574 34.5369 30.2865C34.4149 30.2155 34.2762 30.1781 34.135 30.1781H34.132ZM14.077 15.3681C14.2621 15.3682 14.4415 15.304 14.5847 15.1866C14.7278 15.0693 14.8258 14.9059 14.8619 14.7243C14.8981 14.5427 14.8702 14.3543 14.7829 14.191C14.6957 14.0277 14.5545 13.8998 14.3835 13.8289C14.2124 13.7581 14.0221 13.7488 13.845 13.8026C13.6678 13.8563 13.5148 13.9699 13.412 14.1238C13.3092 14.2778 13.263 14.4626 13.2812 14.6468C13.2995 14.831 13.381 15.0032 13.512 15.1341C13.6623 15.2833 13.8652 15.3673 14.077 15.3681Z" fill="#1A3A6B"/>
</g>
<defs>
<clipPath id="clip0_146_1405">
<rect width="40.95" height="40.95" fill="white"/>
</clipPath>
</defs>
</svg>
