<svg width="37" height="41" viewBox="0 0 37 41" fill="none" xmlns="http://www.w3.org/2000/svg">
<g clip-path="url(#clip0_146_1424)">
<path d="M36.4 20.5001C36.4 19.2001 35.3 18.1001 34 18.1001H30.5L31.8 14.7001C34 13.8001 35 11.4001 34.1 9.2001C33.1 7.0001 30.7 6.0001 28.5 6.9001C26.7 7.6001 25.7 9.5001 25.9 11.4001L20.5 18.1001H2.4C1.1 18.1001 0 19.2001 0 20.5001C0 21.7001 0.9 22.7001 2 22.9001V29.2001C2 33.7001 5.4 37.4001 9.8 37.8001V39.0001C9.8 40.1001 10.7 41.0001 11.8 41.0001H24.4C25.5 41.0001 26.4 40.1001 26.4 39.0001V37.8001C30.8 37.4001 34.2 33.7001 34.2 29.2001V22.9001C35.5 22.7001 36.4 21.7001 36.4 20.5001ZM27.9 9.5001C28.6 8.3001 30.2 7.8001 31.5 8.5001C32.7 9.2001 33.2 10.8001 32.5 12.1001C31.8 13.3001 30.2 13.8001 28.9 13.1001C27.6 12.3001 27.1 10.7001 27.9 9.5001ZM26.6 13.1001C27.3 14.2001 28.6 14.9001 29.9 15.0001L28.7 18.1001H22.6L26.6 13.1001ZM24.5 39.3001H11.9C11.7 39.3001 11.5 39.1001 11.5 38.9001V37.7001H24.9V38.9001C24.9 39.2001 24.7 39.3001 24.5 39.3001ZM34 21.3001H21.8C21.4 21.3001 21 21.7001 21 22.1001C21 22.5001 21.4 22.9001 21.8 22.9001H32.8V29.1001C32.8 33.0001 29.6 36.1001 25.8 36.1001H10.8C6.9 36.1001 3.8 32.9001 3.8 29.1001V22.9001H14.8C15.2 22.9001 15.6 22.5001 15.6 22.1001C15.6 21.7001 15.2 21.3001 14.8 21.3001H2.4C2 21.3001 1.6 20.9001 1.6 20.5001C1.6 20.1001 2 19.7001 2.4 19.7001H34C34.4 19.7001 34.8 20.1001 34.8 20.5001C34.8 20.9001 34.4 21.3001 34 21.3001ZM12.8 16.2001C13 16.2001 13.2 16.1001 13.4 16.0001L14.1 15.3001C14.5 15.4001 15 15.4001 15.4 15.4001C19.5 15.4001 23 12.2001 23.2 8.0001C23.3 6.5001 22.1 5.1001 20.6 5.0001H20.3C16 5.3001 12.7 9.0001 12.9 13.3001C12.9 13.6001 12.9 13.9001 13 14.1001L12.3 14.8001C12 15.1001 12 15.6001 12.3 15.9001C12.3 16.1001 12.6 16.2001 12.8 16.2001ZM16.2 8.4001C17.3 7.3001 18.7 6.7001 20.2 6.6001C20.9 6.6001 21.4 7.1001 21.5 7.7001V7.8001C21.3 11.0001 18.7 13.6001 15.5 13.7001L18.2 11.0001C18.5 10.7001 18.5 10.2001 18.2 9.9001C17.9 9.6001 17.4 9.6001 17.1 9.9001L14.4 12.6001C14.4 11.0001 15.1 9.5001 16.2 8.4001ZM1.2 2.1001C0.5 6.4001 3.4 10.4001 7.6 11.1001C7.9 11.1001 8.1 11.2001 8.4 11.2001H8.6C10.1 11.2001 11.4 9.9001 11.4 8.4001V8.2001C11.1 3.9001 7.4 0.600098 3.1 0.800098C2.8 0.800098 2.5 0.800098 2.3 0.900098L1.6 0.200098C1.3 -0.0999023 0.8 -0.0999023 0.5 0.200098C0.2 0.500098 0.2 1.0001 0.5 1.3001L1.2 2.1001ZM8 4.2001C9.1 5.3001 9.7 6.7001 9.8 8.2001C9.8 8.9001 9.3 9.4001 8.7 9.5001H8.6C5.4 9.3001 2.8 6.7001 2.7 3.5001L5.4 6.2001C5.7 6.5001 6.2 6.5001 6.5 6.2001C6.8 5.9001 6.8 5.4001 6.5 5.1001L3.8 2.4001C5.4 2.5001 6.9 3.1001 8 4.2001ZM18.2 21.3001C18.6 21.3001 19 21.7001 19 22.1001C19 22.5001 18.6 22.9001 18.2 22.9001C17.8 22.9001 17.4 22.5001 17.4 22.1001C17.4 21.7001 17.7 21.3001 18.2 21.3001Z" fill="#1A3A6B"/>
</g>
<defs>
<clipPath id="clip0_146_1424">
<rect width="36.4" height="41" fill="white"/>
</clipPath>
</defs>
</svg>
